<svg width="30" height="30" viewBox="0 0 30 30" fill="none" xmlns="http://www.w3.org/2000/svg">
<path fill-rule="evenodd" clip-rule="evenodd" d="M29.6357 14.3377C29.2936 6.78323 23.2229 0.713126 15.6676 0.371045C15.7143 0.344094 14.3341 0.336744 14.3341 0.371105C6.77881 0.713176 0.708065 6.78322 0.365948 14.3377C0.348985 14.3377 0.363057 15.6821 0.366008 15.6711C0.708115 23.2256 6.7788 29.2957 14.3341 29.6377C14.3365 29.6391 15.6942 29.6643 15.6677 29.6377C23.223 29.2957 29.2937 23.2256 29.6358 15.6711L29.6357 14.3377Z" fill="#303C42"/>
<path fill-rule="evenodd" clip-rule="evenodd" d="M28.2989 15.6667C27.9592 22.486 22.485 27.9596 15.6665 28.2993C15.6757 28.265 14.3783 28.3036 14.3332 28.2993C7.51476 27.9596 2.0406 22.4859 1.70087 15.6667C1.70894 15.6814 1.72414 14.4202 1.70087 14.3334C2.04061 7.51414 7.51476 2.04054 14.3332 1.70087C14.3449 1.74438 15.6807 1.71498 15.6665 1.70087C22.485 2.04054 27.9592 7.51421 28.2989 14.3334V15.6667Z" fill="#BBDEFB"/>
<path fill-rule="evenodd" clip-rule="evenodd" d="M8.99996 11.6683C8.99996 9.82832 10.4916 8.33671 12.3316 8.33671C14.1716 8.33671 15.6632 9.82832 15.6632 11.6683C15.6632 13.5083 14.1716 14.9999 12.3316 14.9999C10.4916 14.9999 8.99996 13.5083 8.99996 11.6683Z" fill="#303C42"/>
<path fill-rule="evenodd" clip-rule="evenodd" d="M10.3366 11.6633C10.3366 10.5587 11.2321 9.66328 12.3366 9.66328C13.4412 9.66328 14.3366 10.5587 14.3366 11.6633C14.3366 12.7678 13.4412 13.6632 12.3366 13.6632C11.2321 13.6632 10.3366 12.7678 10.3366 11.6633Z" fill="#1E88E5"/>
<path opacity="0.1" fill-rule="evenodd" clip-rule="evenodd" d="M13.3717 9.96842C13.5569 10.2709 13.6695 10.6225 13.6695 11.002C13.6695 12.1026 12.7718 12.9979 11.6683 12.9979C11.2877 12.9979 10.9351 12.8856 10.6319 12.7009C10.9837 13.2753 11.6124 13.6632 12.3353 13.6632C13.4389 13.6632 14.3366 12.7679 14.3366 11.6673C14.3366 10.9463 13.9477 10.3193 13.3717 9.96842Z" fill="black"/>
<path fill-rule="evenodd" clip-rule="evenodd" d="M15.6632 10.9999C15.6632 9.52895 16.8578 8.33653 18.3315 8.33653C19.8052 8.33653 20.9999 9.52895 20.9999 10.9999C20.9999 12.4708 19.8052 13.6633 18.3315 13.6633C16.8578 13.6633 15.6632 12.4708 15.6632 10.9999Z" fill="#303C42"/>
<path fill-rule="evenodd" clip-rule="evenodd" d="M16.9999 10.9999C16.9999 10.2617 17.5961 9.66327 18.3316 9.66327C19.067 9.66327 19.6632 10.2617 19.6632 10.9999C19.6632 11.7381 19.067 12.3365 18.3316 12.3365C17.5961 12.3365 16.9999 11.7381 16.9999 10.9999Z" fill="#1E88E5"/>
<path opacity="0.1" fill-rule="evenodd" clip-rule="evenodd" d="M18.876 9.78796C18.9515 9.95537 18.9981 10.1379 18.9981 10.3331C18.9981 11.0693 18.4011 11.6687 17.6678 11.6687C17.4733 11.6687 17.2915 11.6218 17.1248 11.5461C17.3336 12.0097 17.7942 12.3365 18.333 12.3365C19.0663 12.3365 19.6633 11.7371 19.6633 11.0009C19.6633 10.4599 19.3378 9.99762 18.876 9.78795L18.876 9.78796Z" fill="black"/>
<path fill-rule="evenodd" clip-rule="evenodd" d="M7.77622 17.043C8.84024 16.416 10.4945 15.6687 12.3343 15.6687C12.8074 15.6687 13.2667 15.7206 13.7084 15.8046C13.9 15.6068 14.1087 15.4346 14.3511 15.3181C15.2823 14.8705 16.7291 14.3365 18.3319 14.3365C19.9348 14.3365 21.3816 14.8705 22.3128 15.3181C23.1458 15.7187 23.6632 16.5182 23.6632 17.404V17.7084C23.6632 18.42 23.0651 18.999 22.3304 18.999H18.246C18.295 19.2255 18.332 19.4569 18.332 19.6963V20.1229C18.332 20.9724 17.6916 21.6632 16.9042 21.6632H7.76455C6.9771 21.6632 6.33672 20.9724 6.33672 20.1229V19.6963C6.33666 18.5833 6.88789 17.5667 7.77622 17.043V17.043Z" fill="#303C42"/>
<path fill-rule="evenodd" clip-rule="evenodd" d="M22.3365 17.7064V17.4015C22.3365 17.0314 22.1079 16.6913 21.7405 16.5147C20.9334 16.1264 19.6873 15.6631 18.3344 15.6631C17.2098 15.6631 16.1752 15.9832 15.389 16.3142C15.957 16.5436 16.4799 16.7959 16.8935 17.0398C17.1681 17.2018 17.3967 17.4229 17.6006 17.6675L22.3365 17.7064Z" fill="#1E88E5"/>
<path fill-rule="evenodd" clip-rule="evenodd" d="M7.66327 20.1278C7.66327 20.2667 7.74205 20.3364 7.75837 20.3364H16.9048C16.9211 20.3364 16.9999 20.2666 16.9999 20.1278V19.7004C16.9999 19.065 16.6919 18.4732 16.2158 18.1917C15.2942 17.6482 13.8718 16.9998 12.3316 16.9998C10.7914 16.9998 9.36899 17.6483 8.44741 18.1917C7.9713 18.4732 7.66326 19.065 7.66326 19.7004L7.66327 20.1278Z" fill="#1E88E5"/>
<path opacity="0.2" fill-rule="evenodd" clip-rule="evenodd" d="M21.7402 16.5184C21.1622 16.2413 20.3542 15.932 19.4479 15.7751C18.5208 15.9848 17.7249 16.5181 17.1656 17.2459C17.3215 17.3733 17.4679 17.5121 17.5981 17.6678L22.3365 17.7065V17.4025C22.3365 17.0336 22.1077 16.6945 21.7402 16.5184Z" fill="white"/>
<path opacity="0.2" fill-rule="evenodd" clip-rule="evenodd" d="M16.4035 20.3365H16.9053C16.9215 20.3365 16.9999 20.2666 16.9999 20.1275V19.6989C16.9999 19.2215 16.8278 18.7688 16.5423 18.453C16.4203 18.8385 16.3366 19.2412 16.3366 19.6675C16.3366 19.8967 16.3669 20.1178 16.4035 20.3365L16.4035 20.3365Z" fill="white"/>
<path opacity="0.2" fill-rule="evenodd" clip-rule="evenodd" d="M23.6695 17.4609V17.7085C23.6695 18.4203 23.0708 18.9994 22.3353 18.9994H18.2464C18.2954 19.2261 18.3325 19.4574 18.3325 19.6969V20.1237C18.3325 20.9734 17.6914 21.6645 16.9031 21.6645H16.8862C17.5797 22.8543 18.856 23.6632 20.3339 23.6632C22.5446 23.6632 24.3367 21.8735 24.3367 19.6657C24.3366 18.8501 24.0894 18.0932 23.6695 17.4609Z" fill="white"/>
</svg>
