<svg width="18" height="14" viewBox="0 0 18 14" fill="none" xmlns="http://www.w3.org/2000/svg">
<path fill-rule="evenodd" clip-rule="evenodd" d="M17.8902 4.78059L13.3902 0.11393C13.3199 0.04102 13.2247 0 13.125 0H4.87506C4.77546 0 4.68022 0.04102 4.60991 0.11393L0.109921 4.78059C0.0388705 4.85464 -0.000679482 4.9553 6.05176e-05 5.05972C0.00154052 5.16454 0.0432705 5.26443 0.115791 5.33658L8.74077 13.8921C8.8133 13.9639 8.90702 14 9.00005 14C9.09307 14 9.18683 13.9639 9.25933 13.8921L17.8843 5.33658C17.9568 5.26443 17.9986 5.16454 18 5.05972C18.0008 4.9553 17.9612 4.85468 17.8902 4.78059H17.8902Z" fill="#303C42"/>
<path fill-rule="evenodd" clip-rule="evenodd" d="M11.1576 5.44905L9.00002 12.3465L6.84249 5.44905H11.1576Z" fill="#E7633F"/>
<path fill-rule="evenodd" clip-rule="evenodd" d="M7.02552 4.66338L9.00007 1.16076L10.9747 4.66338H7.02552Z" fill="#E7633F"/>
<path fill-rule="evenodd" clip-rule="evenodd" d="M9.65552 0.775631H12.6093L11.5555 4.15841L9.65552 0.775631Z" fill="#E7633F"/>
<path fill-rule="evenodd" clip-rule="evenodd" d="M6.44458 4.15841L5.39079 0.775631H8.34461L6.44458 4.15841Z" fill="#E7633F"/>
<path fill-rule="evenodd" clip-rule="evenodd" d="M5.81123 4.66347H1.28064L4.70373 1.11642L5.81123 4.66347Z" fill="#E7633F"/>
<path fill-rule="evenodd" clip-rule="evenodd" d="M6.05545 5.44904L8.18259 12.2619L1.30863 5.44904H6.05545Z" fill="#E7633F"/>
<path fill-rule="evenodd" clip-rule="evenodd" d="M11.9447 5.44904H16.6914L9.81748 12.2619L11.9447 5.44904Z" fill="#E7633F"/>
<path fill-rule="evenodd" clip-rule="evenodd" d="M12.1889 4.66347L13.2964 1.11642L16.7195 4.66347H12.1889Z" fill="#E7633F"/>
<path opacity="0.1" fill-rule="evenodd" clip-rule="evenodd" d="M15.3763 5.44904L9.8175 12.2619L16.6915 5.44904H15.3763Z" fill="black"/>
<path opacity="0.1" fill-rule="evenodd" clip-rule="evenodd" d="M13.2962 1.11618L15.3677 4.66739L16.7195 4.66531L13.2962 1.11618Z" fill="black"/>
<path opacity="0.2" fill-rule="evenodd" clip-rule="evenodd" d="M6.84249 5.44879L9.00001 12.3462L8.62436 5.44879H6.84249Z" fill="white"/>
<path opacity="0.2" fill-rule="evenodd" clip-rule="evenodd" d="M8.62461 4.66313L9.00004 1.16051L7.02552 4.66313H8.62461Z" fill="white"/>
<path opacity="0.2" fill-rule="evenodd" clip-rule="evenodd" d="M4.70387 1.11617L1.28064 4.66322H3.37328L4.70387 1.11617Z" fill="white"/>
<path opacity="0.2" fill-rule="evenodd" clip-rule="evenodd" d="M1.30864 5.44879L8.1826 12.2616L3.31096 5.44879H1.30864Z" fill="white"/>
</svg>
