<svg width="20" height="20" viewBox="0 0 20 20" fill="none" xmlns="http://www.w3.org/2000/svg">
<path fill-rule="evenodd" clip-rule="evenodd" d="M17.2727 8.63637C17.2727 8.88715 17.0689 9.09093 16.8181 9.09093H16.3636C16.1123 9.09093 15.909 9.29424 15.909 9.54549V11.3637C15.909 11.6145 15.7053 11.8182 15.4545 11.8182C15.2037 11.8182 14.9999 11.6145 14.9999 11.3637V9.54544C14.9999 9.29419 14.7966 9.09088 14.5454 9.09088H14.0908C13.84 9.09088 13.6362 8.88714 13.6362 8.63632V6.81817C13.6362 6.56739 13.84 6.36361 14.0908 6.36361H14.5454C14.7966 6.36361 14.9999 6.1603 14.9999 5.90905V3.18178C15 2.931 15.2037 2.72726 15.4545 2.72726C15.7053 2.72726 15.9091 2.931 15.9091 3.18182V5.90909C15.9091 6.16034 16.1124 6.36365 16.3636 6.36365H16.8182C17.069 6.36365 17.2728 6.56739 17.2728 6.81821V8.63636L17.2727 8.63637ZM15.4545 17.2727C14.4518 17.2727 13.6363 16.4573 13.6363 15.4545C13.6363 14.4517 14.4517 13.6364 15.4545 13.6364C16.4573 13.6364 17.2727 14.4518 17.2727 15.4545C17.2727 16.4573 16.4573 17.2727 15.4545 17.2727ZM11.8181 9.54544C11.8181 9.79622 11.6144 10 11.3636 10H10.9091C10.6578 10 10.4545 10.2033 10.4545 10.4546V11.3636C10.4545 11.6144 10.2508 11.8182 9.99994 11.8182C9.74912 11.8182 9.54542 11.6144 9.54542 11.3636V10.4546C9.54542 10.2033 9.34211 10 9.09086 10H8.6363C8.38552 10 8.18174 9.79626 8.18174 9.54544V7.72725C8.18174 7.47647 8.38548 7.27269 8.6363 7.27269H9.09086C9.34211 7.27269 9.54542 7.06938 9.54542 6.81813V3.18183C9.54542 2.93101 9.74916 2.72727 9.99998 2.72727C10.2508 2.72727 10.4545 2.93101 10.4545 3.18183V6.81817C10.4545 7.06942 10.6578 7.27273 10.9091 7.27273H11.3637C11.6144 7.27273 11.8182 7.47647 11.8182 7.72729V9.54544H11.8181ZM9.99999 17.2727C8.99725 17.2727 8.1818 16.4573 8.1818 15.4545C8.1818 14.4517 8.99721 13.6364 9.99999 13.6364C11.0028 13.6364 11.8182 14.4518 11.8182 15.4545C11.8182 16.4573 11.0027 17.2727 9.99999 17.2727ZM6.3636 6.81817C6.3636 7.06895 6.15986 7.27273 5.90904 7.27273H5.45452C5.20327 7.27273 4.99996 7.47604 4.99996 7.72729V11.3636C4.99996 11.6144 4.79622 11.8182 4.5454 11.8182C4.29458 11.8182 4.09088 11.6144 4.09088 11.3636V7.72729C4.09088 7.47604 3.88757 7.27273 3.63632 7.27273H3.1818C2.93098 7.27273 2.72724 7.06895 2.72724 6.81817V4.99998C2.72724 4.7492 2.93098 4.54542 3.1818 4.54542H3.63636C3.88757 4.54546 4.09088 4.34215 4.09088 4.0909V3.18182C4.09088 2.931 4.29462 2.72726 4.54544 2.72726C4.79626 2.72726 5 2.931 5 3.18182V4.0909C5 4.34215 5.20331 4.54546 5.45456 4.54546H5.90912C6.1599 4.54546 6.36368 4.7492 6.36368 5.00002V6.81817H6.3636ZM4.54545 17.2727C3.54267 17.2727 2.72726 16.4573 2.72726 15.4545C2.72726 14.4518 3.54267 13.6364 4.54545 13.6364C5.54823 13.6364 6.36364 14.4518 6.36364 15.4545C6.36364 16.4573 5.54819 17.2727 4.54545 17.2727ZM18.1818 0H1.81819C0.81541 0 0 0.81541 0 1.81819V18.1818C0 19.1845 0.81541 20 1.81819 20H18.1818C19.1845 20 20 19.1846 20 18.1818V1.81819C19.9999 0.81541 19.1845 0 18.1818 0Z" fill="#424242"/>
</svg>
