<svg width="130" height="34" viewBox="0 0 130 34" fill="none" xmlns="http://www.w3.org/2000/svg">
<path fill-rule="evenodd" clip-rule="evenodd" d="M40.1268 16.2234C40.1268 11.7927 43.5161 9.01293 47.6788 9.01293C50.7953 9.01293 52.6784 10.6639 53.641 12.3989L50.6281 13.9668C50.105 13.0471 49.0383 12.1898 47.6788 12.1898C45.3982 12.1898 43.7879 13.9248 43.7879 16.2234C43.7879 18.5021 45.3982 20.2576 47.6788 20.2576C48.704 20.2576 49.7501 19.8395 50.2517 19.4213V18.3345H47.1142V15.1792H53.8497V20.7172C52.3645 22.3687 50.3148 23.4345 47.6788 23.4345C43.5161 23.4345 40.1268 20.6547 40.1268 16.2234V16.2234Z" fill="#292C3B"/>
<path fill-rule="evenodd" clip-rule="evenodd" d="M61.8324 20.5951V19.6964C61.498 19.2158 60.7447 18.9857 60.0335 18.9857C59.1972 18.9857 58.4229 19.3618 58.4229 20.156C58.4229 20.9502 59.1972 21.3262 60.0335 21.3262C60.7447 21.3262 61.498 21.0757 61.8324 20.5951V20.5951ZM61.8324 23.1867V22.1834C61.2047 22.9356 59.9914 23.4372 58.6946 23.4372C57.1471 23.4372 55.2226 22.3715 55.2226 20.1139C55.2226 17.6689 57.1471 16.8542 58.6946 16.8542C60.0335 16.8542 61.2257 17.2928 61.8324 18.045V17.0417C61.8324 16.1641 61.0791 15.5584 59.7822 15.5584C58.7787 15.5584 57.7747 15.9555 56.9589 16.6452L55.7667 14.4081C57.0635 13.3009 58.7992 12.8413 60.3473 12.8413C62.7733 12.8413 65.0531 13.74 65.0531 16.8747V23.1866L61.8324 23.1867Z" fill="#292C3B"/>
<path fill-rule="evenodd" clip-rule="evenodd" d="M80.1342 23.1833V17.0412C80.1342 16.2683 79.7579 15.6835 78.796 15.6835C77.9172 15.6835 77.2902 16.2479 76.9764 16.6653V23.1833H73.7555V17.0412C73.7555 16.2683 73.4002 15.6835 72.4378 15.6835C71.5595 15.6835 70.9535 16.2479 70.6182 16.6653V23.1833H67.3978V13.0931H70.6182V14.3253C71.0576 13.7409 72.3542 12.8426 73.9436 12.8426C75.4075 12.8426 76.3909 13.4485 76.8093 14.6387C77.3943 13.7614 78.7125 12.8426 80.3014 12.8426C82.163 12.8426 83.3341 13.8029 83.3341 15.872V23.1833H80.1342Z" fill="#292C3B"/>
<path fill-rule="evenodd" clip-rule="evenodd" d="M90.3991 15.4329C88.9971 15.4329 88.4536 16.2686 88.3285 16.9997H92.4902C92.4066 16.2896 91.8841 15.4329 90.3991 15.4329ZM85.0447 18.1285C85.0447 15.2028 87.2404 12.8413 90.3991 12.8413C93.3901 12.8413 95.5653 15.0358 95.5653 18.4631V19.1947H88.37C88.6002 20.0934 89.4366 20.8456 90.9006 20.8456C91.6123 20.8456 92.7835 20.5325 93.3691 19.9889L94.7705 22.0994C93.7665 22.9981 92.0933 23.4372 90.5452 23.4372C87.4291 23.4372 85.0447 21.4097 85.0447 18.1285L85.0447 18.1285Z" fill="#292C3B"/>
<path fill-rule="evenodd" clip-rule="evenodd" d="M102.298 20.5952C103.574 20.5952 104.536 19.6544 104.536 18.1286C104.536 16.6243 103.574 15.6835 102.298 15.6835C101.608 15.6835 100.771 16.0596 100.374 16.6032V19.6964C100.771 20.2396 101.608 20.5951 102.298 20.5951V20.5952ZM97.1523 23.1867V9.24658H100.374V14.2832C101.168 13.2805 102.256 12.8414 103.365 12.8414C105.895 12.8414 107.82 14.8268 107.82 18.1286C107.82 21.5564 105.854 23.4373 103.365 23.4373C102.235 23.4373 101.21 22.9777 100.374 22.0159V23.1867L97.1523 23.1867Z" fill="#292C3B"/>
<path fill-rule="evenodd" clip-rule="evenodd" d="M115.473 20.5951V19.6964C115.138 19.2158 114.386 18.9857 113.674 18.9857C112.838 18.9857 112.064 19.3618 112.064 20.156C112.064 20.9502 112.838 21.3262 113.674 21.3262C114.386 21.3262 115.138 21.0757 115.473 20.5951V20.5951ZM115.473 23.1867V22.1834C114.846 22.9356 113.632 23.4372 112.336 23.4372C110.788 23.4372 108.864 22.3715 108.864 20.1139C108.864 17.6689 110.788 16.8542 112.336 16.8542C113.674 16.8542 114.867 17.2928 115.473 18.045V17.0417C115.473 16.1641 114.72 15.5584 113.423 15.5584C112.42 15.5584 111.416 15.9555 110.6 16.6452L109.407 14.4081C110.704 13.3009 112.44 12.8413 113.988 12.8413C116.414 12.8413 118.694 13.74 118.694 16.8747V23.1866L115.473 23.1867Z" fill="#292C3B"/>
<path fill-rule="evenodd" clip-rule="evenodd" d="M121.04 23.1834V9.24308H124.251V23.1834H121.04Z" fill="#292C3B"/>
<path fill-rule="evenodd" clip-rule="evenodd" d="M126.595 23.1834V9.24308H129.816V23.1834H126.595Z" fill="#292C3B"/>
<path fill-rule="evenodd" clip-rule="evenodd" d="M28.1055 28.9279C21.5113 35.0452 11.2024 34.6644 5.07879 28.0771C-1.04431 21.4892 -0.663156 11.1896 5.93047 5.07187C12.5246 -1.04589 22.8341 -0.664585 28.9572 5.9222C35.0813 12.5106 34.6996 22.8101 28.1055 28.9279Z" fill="#FFCF48"/>
<path fill-rule="evenodd" clip-rule="evenodd" d="M28.1029 25.1137C21.5102 31.2309 11.2036 30.8501 5.08134 24.2628C2.64358 21.6393 1.2402 18.4271 0.846526 15.125C0.301476 19.7055 1.6938 24.4876 5.08134 28.1326C11.2036 34.7199 21.5102 35.1007 28.1029 28.9835C32.0702 25.3017 33.7847 20.1062 33.1892 15.1156C32.7493 18.8136 31.0474 22.3809 28.1029 25.1137V25.1137Z" fill="#DD9F17"/>
<path fill-rule="evenodd" clip-rule="evenodd" d="M5.87101 6.92661C12.4639 0.81014 22.7718 1.19088 28.8937 7.77737C31.6238 10.714 33.0566 14.3891 33.2264 18.1014C33.423 13.8886 31.9938 9.60227 28.8937 6.26754C22.7718 -0.318412 12.4639 -0.699672 5.87101 5.41732C2.21847 8.80667 0.476035 13.48 0.686807 18.0945C0.878661 13.9857 2.61688 9.94677 5.87101 6.92661Z" fill="#FFCF48"/>
<path fill-rule="evenodd" clip-rule="evenodd" d="M17.0015 1.4418C13.0606 1.4418 9.29891 2.91828 6.40933 5.59916C0.1187 11.4368 -0.24611 21.3005 5.59613 27.5872C8.53197 30.7461 12.6916 32.5582 17.0088 32.5582C20.9492 32.5582 24.7109 31.0817 27.6005 28.4003C33.8916 22.5627 34.257 12.699 28.4142 6.41277C25.4784 3.25339 21.3188 1.4418 17.0015 1.4418ZM17.0088 34C12.2921 34 7.74662 32.0198 4.53849 28.5684C-1.84466 21.6992 -1.44621 10.9215 5.42792 4.54289C8.58507 1.61356 12.6952 0 17.0015 0C21.7183 0 26.2637 1.97967 29.4718 5.43162C35.855 12.3003 35.456 23.0785 28.5819 29.4571C25.4247 32.3864 21.3151 34 17.0089 34L17.0088 34Z" fill="#E6E6E6"/>
<path fill-rule="evenodd" clip-rule="evenodd" d="M15.9031 20.1349H8.35678L9.52745 16.3256L8.35678 12.5165H15.9031V20.1349Z" fill="#A5452F"/>
<path fill-rule="evenodd" clip-rule="evenodd" d="M12.1305 13.4493L15.9036 12.5165L15.9041 14.5168L12.1305 13.4493Z" fill="#3D2B28"/>
<path fill-rule="evenodd" clip-rule="evenodd" d="M12.1305 21.249H23.5053L25.5177 13.4419H12.1305V21.249Z" fill="#E7633F"/>
<mask id="mask0_0_697" style="mask-type:alpha" maskUnits="userSpaceOnUse" x="1" y="1" width="32" height="32">
<path fill-rule="evenodd" clip-rule="evenodd" d="M17.0142 1.44358C13.0731 1.44358 9.3107 2.91989 6.42058 5.60098C0.128747 11.4374 -0.236663 21.2999 5.60669 27.5859C8.5431 30.7444 12.704 32.5563 17.0216 32.5563C20.9632 32.5563 24.7251 31.08 27.6152 28.3989C33.9076 22.562 34.273 12.6994 28.4297 6.41397C25.4927 3.25548 21.3323 1.44358 17.0142 1.44358H17.0142Z" fill="white"/>
</mask>
<g mask="url(#mask0_0_697)">
<path d="M20.4014 33.2778L25.6896 12.7857" stroke="#15161E" stroke-width="3.41895" stroke-linecap="round"/>
</g>
</svg>
