<svg width="28" height="28" viewBox="0 0 28 28" fill="none" xmlns="http://www.w3.org/2000/svg">
<path fill-rule="evenodd" clip-rule="evenodd" d="M19.2496 6.99976C18.2849 6.99976 17.5 7.78492 17.5 8.75025C17.5 9.71485 18.2849 10.4998 19.2496 10.4998C20.2149 10.4998 21.0001 9.71485 21.0001 8.75025C21.0001 7.78492 20.2149 6.99976 19.2496 6.99976ZM5.03406 22.1907L5.03413 22.1917C4.12517 22.259 3.23821 22.7273 2.53663 23.5103C1.76804 24.3677 1.30308 25.5081 1.19203 26.8076C2.49136 26.6965 3.63214 26.2319 4.48996 25.4631C5.27265 24.762 5.74079 23.8752 5.80813 22.9666L5.03413 22.1917L5.03406 22.1907ZM11.0803 28.0002C10.9577 28.0002 10.8397 27.9624 10.7392 27.8904C10.5876 27.7803 10.4971 27.6033 10.4971 27.417V22.989L9.91663 22.4084L7.99603 24.3291C7.88481 24.4394 7.73842 24.5002 7.58383 24.5002C7.42866 24.5002 7.28196 24.4394 7.17073 24.3291L6.79633 23.9548C6.46767 25.0486 5.7231 26.0488 4.70147 26.7705C3.56319 27.5749 2.13927 28.0002 0.583631 28.0002C0.262051 28.0002 0.000430626 27.7383 0.000430626 27.4163C0.000430626 25.8606 0.425471 24.4368 1.2296 23.2988C1.95182 22.2764 2.95169 21.5322 4.04503 21.2034L3.67063 20.8291C3.44351 20.602 3.44351 20.2317 3.67063 20.0037L5.59213 18.0832L5.00893 17.5H0.583631C0.396661 17.5 0.219691 17.4094 0.110231 17.2578C0.000630625 17.1059 -0.0293194 16.9094 0.0301306 16.7322C1.29446 12.9402 3.31737 10.5757 9.48643 10.5041C12.3063 7.05687 14.6824 4.781 17.1901 3.12475C20.3728 1.02221 23.7178 0.000244141 27.4162 0.000244141C27.7383 0.000244141 28.0003 0.261964 28.0003 0.583494C28.0003 4.28271 26.978 7.62841 24.8748 10.8113C23.2178 13.3193 20.9411 15.6956 17.4928 18.5161C17.4206 24.6846 15.0562 26.7065 11.2648 27.9697C11.2053 27.99 11.1433 28.0002 11.0803 28.0002V28.0002Z" fill="#424242"/>
</svg>
