<svg width="28" height="20" viewBox="0 0 28 20" fill="none" xmlns="http://www.w3.org/2000/svg">
<path fill-rule="evenodd" clip-rule="evenodd" d="M21.5833 10C21.2612 10 21 9.75125 21 9.44444C21 9.13756 21.2612 8.88886 21.5833 8.88886C21.9055 8.88886 22.1667 9.13756 22.1667 9.44444C22.1667 9.75126 21.9055 10 21.5833 10ZM14 18.8889C11.138 18.8889 8.48909 17.6595 6.72427 15.5556H21.2757C19.5109 17.6595 16.862 18.8889 14 18.8889ZM5.83335 9.44443C5.83335 9.13756 6.09454 8.88886 6.4167 8.88886C6.73886 8.88886 7 9.13756 7 9.44443C7 9.75125 6.73881 10 6.41665 10C6.09449 10 5.83335 9.75125 5.83335 9.44443ZM8.16665 12.7778C8.16665 13.0846 7.90546 13.3333 7.5833 13.3333C7.26114 13.3333 7 13.0846 7 12.7778C7 12.4709 7.26119 12.2222 7.58335 12.2222C7.90551 12.2222 8.16665 12.4709 8.16665 12.7778ZM7.58335 5.55558C7.90552 5.55558 8.1667 5.80428 8.1667 6.11114C8.1667 6.41796 7.90551 6.66672 7.58335 6.66672C7.26119 6.66672 7 6.41792 7 6.11108C7 5.80422 7.26119 5.55558 7.58335 5.55558ZM9.91665 3.33333C10.2388 3.33333 10.5 3.58203 10.5 3.8889C10.5 4.19572 10.2388 4.44447 9.91665 4.44447C9.59449 4.44447 9.3333 4.19572 9.3333 3.8889C9.33335 3.58203 9.59454 3.33333 9.91665 3.33333ZM12.6875 8.16515C12.8128 8.08272 12.9006 7.95792 12.9302 7.81469L13.4281 5.44709C13.4828 5.18777 13.7232 5.00007 14 5.00007C14.2768 5.00007 14.5172 5.18777 14.5719 5.44709L15.0698 7.81469C15.0994 7.95792 15.1872 8.08273 15.3125 8.16515C15.9517 8.58074 16.3333 9.26651 16.3333 10C16.3333 11.225 15.2863 12.2222 14 12.2222C12.7137 12.2222 11.6666 11.225 11.6666 10C11.6666 9.26652 12.0484 8.58073 12.6875 8.16515H12.6875ZM14 2.22224C14.3222 2.22224 14.5834 2.47093 14.5834 2.77781C14.5834 3.08463 14.3222 3.33338 14 3.33338C13.6778 3.33338 13.4166 3.08462 13.4166 2.77781C13.4166 2.47088 13.6778 2.22224 14 2.22224ZM18.0833 3.33333C18.4055 3.33333 18.6667 3.58203 18.6667 3.8889C18.6667 4.19572 18.4055 4.44447 18.0833 4.44447C17.7612 4.44447 17.5 4.19568 17.5 3.88891C17.5 3.58203 17.7612 3.33332 18.0833 3.33332V3.33333ZM20.4167 12.2222C20.7388 12.2222 21 12.4709 21 12.7778C21 13.0846 20.7388 13.3334 20.4167 13.3334C20.0945 13.3334 19.8333 13.0846 19.8333 12.7778C19.8333 12.4709 20.0945 12.2222 20.4167 12.2222ZM20.4167 5.55558C20.7388 5.55558 21 5.80428 21 6.11114C21 6.41796 20.7388 6.66672 20.4167 6.66672C20.0945 6.66672 19.8333 6.41796 19.8333 6.11114C19.8333 5.80422 20.0945 5.55558 20.4167 5.55558ZM23.1639 5.13225C21.3659 2.07427 17.9346 0 14 0C10.0674 0 6.63775 2.07219 4.83897 5.12766C1.89728 6.38152 0 9.14303 0 12.2222C0 16.5104 3.66406 20 8.16665 20C9.11192 20 10.0344 19.8424 10.9133 19.5427C11.8997 19.8315 12.9332 20 14 20C15.0672 20 16.101 19.8314 17.0878 19.5424C17.968 19.8426 18.8898 20 19.8333 20C24.3359 20 28 16.5104 28 12.2222C28 9.14043 26.1046 6.38583 23.1639 5.13225H23.1639Z" fill="#424242"/>
</svg>
