<svg width="18" height="17" viewBox="0 0 18 17" fill="none" xmlns="http://www.w3.org/2000/svg">
<path fill-rule="evenodd" clip-rule="evenodd" d="M13.8552 17C13.7114 17 13.57 16.9589 13.4465 16.8805L8.98958 14.0588L4.55337 16.8672C4.29692 17.0315 3.94657 17.0219 3.69732 16.8415C3.44247 16.6599 3.31583 16.336 3.37735 16.0187L4.40561 10.729L0.28339 7.19527C0.03333 6.97964 -0.0617399 6.63622 0.0405 6.31855C0.13956 6.00339 0.41282 5.7848 0.735169 5.76492L6.23077 5.41159L8.28127 0.48934C8.40473 0.19199 8.68677 -2e-05 8.99996 -2e-05C9.0507 -2e-05 9.09902 0.0095 9.14378 0.02695C9.39744 0.07548 9.61474 0.25171 9.71864 0.50264L11.7691 5.42445L17.2651 5.77778C17.5879 5.79894 17.8607 6.01708 17.9602 6.33392C18.0613 6.65119 17.9658 6.99413 17.7165 7.20773L13.5943 10.7419L14.6226 16.0312C14.6841 16.3489 14.5575 16.6728 14.2998 16.8561C14.1712 16.9498 14.0166 17 13.8552 17L13.8552 17Z" fill="#303C42"/>
<path fill-rule="evenodd" clip-rule="evenodd" d="M8.98277 0.886599L6.87829 5.9887C6.81715 6.13546 6.68169 6.23412 6.52787 6.24406L0.780204 6.61341L5.11142 10.2352C5.22769 10.3351 5.28162 10.493 5.25205 10.6468L4.17523 16.1834L8.78376 13.1904C8.91042 13.1108 9.06865 13.1079 9.19689 13.1825C9.22926 13.2016 9.25841 13.2244 9.28439 13.2505L13.8701 16.1523L12.7414 10.6597C12.7118 10.5058 12.7657 10.3479 12.882 10.248L17.1169 6.61998L11.4655 6.25684C11.3117 6.24688 11.1763 6.14823 11.1151 6.00147L8.98277 0.886599Z" fill="#FFCF48"/>
<path opacity="0.1" fill-rule="evenodd" clip-rule="evenodd" d="M11.1701 6.0762C11.152 6.05075 11.1255 6.03333 11.1131 6.00357L8.98369 0.886591L8.96535 8.51611L11.1701 6.0762Z" fill="black"/>
<path opacity="0.1" fill-rule="evenodd" clip-rule="evenodd" d="M12.8058 10.3657C12.8292 10.3258 12.847 10.2822 12.8827 10.2515L17.1172 6.61836L8.96536 8.51399L12.8058 10.3657Z" fill="black"/>
<path opacity="0.1" fill-rule="evenodd" clip-rule="evenodd" d="M8.98368 13.1311C9.05762 13.1283 9.13168 13.1443 9.19809 13.1828C9.23039 13.2018 9.25964 13.2246 9.28563 13.2507L13.875 16.1508L8.96531 8.51594L8.98368 13.1311Z" fill="black"/>
<path opacity="0.1" fill-rule="evenodd" clip-rule="evenodd" d="M5.18973 10.3491C5.24346 10.4394 5.27582 10.5414 5.25514 10.6489L4.17895 16.1833L8.96519 8.5159L5.18973 10.3491Z" fill="black"/>
<path opacity="0.1" fill-rule="evenodd" clip-rule="evenodd" d="M6.81171 6.07654C6.74058 6.16895 6.64552 6.23869 6.52846 6.24627L0.780174 6.61567L8.96523 8.51588L6.81171 6.07654Z" fill="black"/>
</svg>
