<svg width="28" height="28" viewBox="0 0 28 28" fill="none" xmlns="http://www.w3.org/2000/svg">
<path fill-rule="evenodd" clip-rule="evenodd" d="M27.993 0.672605C28.0238 0.472076 27.948 0.269848 27.7931 0.138869C27.6382 0.00729994 27.4245 -0.0331698 27.2331 0.0300398C27.1984 0.0414097 23.6933 1.16706 15.75 1.16706C8.87362 1.16706 0.746909 0.0181199 0.666019 0.00613995C0.45979 -0.0234998 0.2644 0.0556896 0.13512 0.210668C0.00523999 0.366687 -0.03408 0.578046 0.03083 0.769994C0.0422 0.803624 1.16674 4.19129 1.16674 8.7501C1.16674 9.02014 1.35246 9.2548 1.61506 9.31747C2.75496 9.5886 4.66671 10.406 4.66671 12.8333C4.66671 15.0436 3.72336 16.156 1.69879 16.3355C1.39746 16.3623 1.16674 16.6141 1.16674 16.9165C1.16674 23.1638 0.03368 27.2162 0.0223 27.2561C-0.03293 27.4498 0.01601 27.6589 0.15163 27.8081C0.2872 27.9568 0.49058 28.0268 0.68767 27.9898C0.751489 27.9785 7.09235 26.8329 10.5 26.8329C15.6605 26.8329 27.2422 27.9847 27.3584 27.9967C27.3778 27.9984 27.3972 27.9995 27.4166 27.9995C27.5772 27.9995 27.7316 27.9334 27.8421 27.8149C27.9663 27.6822 28.0221 27.4994 27.9919 27.3205C27.9805 27.251 26.8332 20.2888 26.8332 13.4166C26.8332 8.27276 27.9816 0.747784 27.993 0.672595L27.993 0.672605Z" fill="#303C42"/>
<path fill-rule="evenodd" clip-rule="evenodd" d="M10.5002 25.6693C7.72958 25.6693 3.25848 26.3717 1.36548 26.6914C1.69696 25.2033 2.29091 21.9298 2.33361 17.4314C4.62752 17.0377 5.83489 15.4585 5.83489 12.835C5.83489 10.6537 4.53528 8.98842 2.33246 8.30532C2.28462 5.11562 1.73277 2.55819 1.3962 1.28093C3.71461 1.57944 10.1368 2.33428 15.7487 2.33428C21.7039 2.33428 25.1966 1.72354 26.708 1.37434C26.4039 3.5358 25.6624 9.23622 25.6624 13.4184C25.6624 19.0619 26.425 24.764 26.7212 26.7659C24.0536 26.5102 14.9463 25.6693 10.5002 25.6693L10.5002 25.6693Z" fill="#FFE082"/>
<path opacity="0.15" fill-rule="evenodd" clip-rule="evenodd" d="M10.5002 25.6693C7.72958 25.6693 3.25848 26.3717 1.36548 26.6914C1.69696 25.2033 2.29091 21.9298 2.33361 17.4314C4.62752 17.0377 5.83489 15.4585 5.83489 12.835C5.83489 10.6537 4.53528 8.98842 2.33246 8.30532C2.28462 5.11562 1.73277 2.55819 1.3962 1.28093C3.71461 1.57944 10.1368 2.33428 15.7487 2.33428C21.7039 2.33428 25.1966 1.72354 26.708 1.37434C26.4039 3.5358 25.6624 9.23622 25.6624 13.4184C25.6624 19.0619 26.425 24.764 26.7212 26.7659C24.0536 26.5102 14.9463 25.6693 10.5002 25.6693L10.5002 25.6693Z" fill="#8D6E63"/>
<path opacity="0.2" fill-rule="evenodd" clip-rule="evenodd" d="M10.9204 25.6626C10.8874 25.6626 10.848 25.6656 10.8143 25.6659C11.7461 25.6732 12.85 25.7126 14.0474 25.7737C12.8753 25.7059 11.7933 25.6626 10.9204 25.6626Z" fill="white"/>
<path opacity="0.1" fill-rule="evenodd" clip-rule="evenodd" d="M25.176 1.67776C24.8895 4.02486 24.29 9.41457 24.29 13.4201C24.29 18.9429 24.9336 24.5125 25.206 26.6239C25.8169 26.68 26.3402 26.7293 26.721 26.7658C26.4247 24.7642 25.6618 19.0627 25.6618 13.4201C25.6618 9.23842 26.4037 3.53876 26.7079 1.37759C26.3266 1.46569 25.8174 1.57035 25.176 1.67775V1.67776Z" fill="black"/>
<path opacity="0.2" fill-rule="evenodd" clip-rule="evenodd" d="M14.049 2.31107C14.5531 2.32725 15.0554 2.33822 15.5496 2.33822C15.575 2.33822 15.5964 2.33695 15.6216 2.33695C15.1028 2.33573 14.5771 2.32598 14.049 2.31108V2.31107Z" fill="white"/>
<path opacity="0.2" fill-rule="evenodd" clip-rule="evenodd" d="M2.3338 17.4285C2.29109 21.926 1.69697 25.1989 1.36548 26.6868C1.77019 26.6185 2.30952 26.531 2.90807 26.4383C3.20615 24.8592 3.68008 21.708 3.7159 17.4285C5.73954 17.0349 6.8046 15.456 6.8046 12.8329C6.8046 10.652 5.65812 8.98703 3.71486 8.30405C3.6745 5.25424 3.22922 2.79587 2.93054 1.46881C2.31776 1.39707 1.79308 1.33205 1.39621 1.28093C1.73283 2.55796 2.28479 5.11492 2.33265 8.30411C4.53592 8.98709 5.83579 10.652 5.83579 12.833C5.83579 15.456 4.62818 17.0349 2.3338 17.4285Z" fill="white"/>
<path fill-rule="evenodd" clip-rule="evenodd" d="M18.6632 22.1668C18.6632 20.879 19.7094 19.8351 20.9999 19.8351C22.2904 19.8351 23.3365 20.879 23.3365 22.1668C23.3365 23.4545 22.2904 24.4984 20.9999 24.4984C19.7094 24.4984 18.6632 23.4545 18.6632 22.1668Z" fill="#303C42"/>
<path fill-rule="evenodd" clip-rule="evenodd" d="M19.8366 22.1669C19.8366 21.5217 20.3574 20.9986 20.9999 20.9986C21.6423 20.9986 22.1632 21.5217 22.1632 22.1669C22.1632 22.8122 21.6423 23.3352 20.9999 23.3352C20.3574 23.3352 19.8366 22.8122 19.8366 22.1669Z" fill="#EF5350"/>
<path fill-rule="evenodd" clip-rule="evenodd" d="M7.92607 19.2489C7.92607 18.9253 7.66384 18.6634 7.33977 18.6634C7.01571 18.6634 6.75349 18.9253 6.75349 19.2489C6.75349 19.6839 6.83878 20.1493 6.99966 20.5935C7.08612 20.8319 7.31114 20.98 7.551 20.98C7.6174 20.98 7.68439 20.9691 7.75025 20.9451C8.05485 20.8348 8.21226 20.4992 8.10233 20.1957C7.98675 19.8771 7.92607 19.5495 7.92607 19.2488V19.2489Z" fill="#303C42"/>
<path fill-rule="evenodd" clip-rule="evenodd" d="M11.3453 7.19541C11.4705 7.19541 11.5968 7.15484 11.7039 7.07152C12.1706 6.70554 12.7664 6.41662 13.4739 6.21277C13.7835 6.12424 13.9623 5.79997 13.8735 5.4899C13.7852 5.17988 13.4614 4.99828 13.1529 5.08905C12.3003 5.33401 11.5712 5.69085 10.9856 6.14991C10.7324 6.3486 10.6874 6.71629 10.8854 6.97095C11.0004 7.11834 11.1717 7.19542 11.3453 7.19542L11.3453 7.19541Z" fill="#303C42"/>
<path fill-rule="evenodd" clip-rule="evenodd" d="M10.8406 22.168C10.2222 22.168 9.66818 21.9969 9.19383 21.6591C8.93074 21.4715 8.56805 21.5354 8.38071 21.7972C8.19452 22.0602 8.25602 22.4247 8.51853 22.6119C9.19383 23.0928 9.9751 23.3364 10.934 23.3364C11.2563 23.3364 11.4705 23.0751 11.4705 22.7522C11.4705 22.4293 11.1629 22.1681 10.8406 22.1681V22.168Z" fill="#303C42"/>
<path fill-rule="evenodd" clip-rule="evenodd" d="M9.67549 11.0893H9.67602C9.99863 11.0893 10.2602 10.8216 10.2602 10.4999C10.2602 9.76685 10.3704 9.11697 10.588 8.56795C10.7062 8.26836 10.5589 7.92948 10.2585 7.81158C9.95869 7.69312 9.61834 7.83946 9.49955 8.13965C9.23345 8.81345 9.09578 9.59147 9.09409 10.5136H9.09124C9.09184 10.8353 9.35285 11.0894 9.67549 11.0894V11.0893Z" fill="#303C42"/>
<path fill-rule="evenodd" clip-rule="evenodd" d="M11.9681 13.5777C11.3299 13.2709 10.9065 12.8879 10.6356 12.3734C10.4859 12.0889 10.1328 11.9762 9.84598 12.1276C9.55969 12.2767 9.44944 12.629 9.59914 12.9141C9.98709 13.6517 10.5956 14.2123 11.4596 14.6272C11.5413 14.6665 11.6281 14.6853 11.7132 14.6853C11.931 14.6853 12.1401 14.564 12.2407 14.3557C12.3812 14.0661 12.2589 13.7178 11.9681 13.5777H11.9681Z" fill="#303C42"/>
<path fill-rule="evenodd" clip-rule="evenodd" d="M15.5308 5.87106C16.1731 5.82681 16.9218 5.78092 17.5449 5.9306C17.5903 5.94193 17.6363 5.94705 17.6818 5.94705C17.9445 5.94705 18.1827 5.76847 18.2468 5.50251C18.3225 5.19122 18.1304 4.87708 17.8177 4.80225C17.0718 4.62197 16.202 4.6599 15.4477 4.71325C15.1271 4.73595 14.8861 5.01317 14.9088 5.33355C14.931 5.65281 15.2033 5.89943 15.5308 5.87107V5.87106Z" fill="#303C42"/>
<path fill-rule="evenodd" clip-rule="evenodd" d="M16.1588 15.3333C15.5236 14.7783 14.6977 14.4937 13.9731 14.2704C13.666 14.1755 13.339 14.3471 13.244 14.6545C13.1488 14.9612 13.3208 15.2867 13.6291 15.3816C14.2386 15.5696 14.9273 15.8037 15.3898 16.2081C15.5004 16.3046 15.6376 16.3524 15.7743 16.3524C15.9361 16.3524 16.0979 16.2853 16.213 16.1541C16.4254 15.9128 16.4009 15.5452 16.1588 15.3333Z" fill="#303C42"/>
<path fill-rule="evenodd" clip-rule="evenodd" d="M16.6156 17.1303C16.2961 17.1548 16.057 17.435 16.0814 17.7562C16.0893 17.861 16.0933 17.9692 16.0933 18.0826C16.0933 18.6863 16.0123 19.2279 15.852 19.6926C15.7466 19.9973 15.9069 20.3293 16.2094 20.4347C16.2729 20.4569 16.3368 20.4672 16.3997 20.4672C16.64 20.4672 16.8648 20.3163 16.9475 20.0754C17.1503 19.487 17.2534 18.8167 17.2534 18.0825C17.2534 17.9385 17.2483 17.8007 17.2381 17.6674C17.2138 17.3467 16.9339 17.1069 16.6156 17.1303Z" fill="#303C42"/>
<path fill-rule="evenodd" clip-rule="evenodd" d="M14.7762 21.1805C14.3148 21.5336 13.717 21.7946 13.0005 21.9568C12.6869 22.0276 12.4903 22.3406 12.5607 22.6559C12.6216 22.9278 12.8619 23.1123 13.1278 23.1123C13.1704 23.1123 13.2131 23.1078 13.2562 23.0981C14.137 22.8988 14.8853 22.5668 15.4807 22.1116C15.7364 21.9162 15.7858 21.549 15.5915 21.2919C15.3978 21.0349 15.0319 20.9852 14.7762 21.1805V21.1805Z" fill="#303C42"/>
<path fill-rule="evenodd" clip-rule="evenodd" d="M19.6134 7.75584C19.6914 8.00459 19.9216 8.16355 20.17 8.16355C20.2275 8.16355 20.2862 8.15505 20.3444 8.13685C20.6515 8.0409 20.823 7.71489 20.7267 7.40825C20.7079 7.34861 20.5296 6.80688 20.0504 6.21403C19.8487 5.96419 19.4817 5.92383 19.2299 6.12658C18.9793 6.32818 18.9399 6.69388 19.1422 6.94431C19.4829 7.36571 19.6128 7.75528 19.6134 7.75583V7.75584Z" fill="#303C42"/>
<path fill-rule="evenodd" clip-rule="evenodd" d="M21.7818 14.0278C21.8854 14.1571 22.0392 14.2363 22.205 14.2454C22.2159 14.2459 22.2267 14.2465 22.2375 14.2465C22.3919 14.2465 22.5399 14.1855 22.6499 14.0756L23.1654 13.5607C23.2828 13.444 23.3443 13.2822 23.3352 13.1165C23.326 12.9507 23.2469 12.7964 23.1176 12.6927L21.1103 11.0871L23.1176 9.48148C23.2469 9.37783 23.3261 9.22346 23.3352 9.05774C23.3442 8.89201 23.2828 8.73022 23.1654 8.61348L22.6499 8.09859C22.5326 7.98124 22.368 7.92487 22.205 7.92888C22.0393 7.93799 21.8855 8.01716 21.7818 8.14643L20.1763 10.1532L18.5708 8.14643C18.4671 8.0171 18.3133 7.93793 18.1475 7.92888C17.988 7.92719 17.8205 7.98124 17.7026 8.09859L17.1871 8.61348C17.0697 8.73022 17.0082 8.89201 17.0174 9.05774C17.0265 9.22347 17.1057 9.37783 17.235 9.48148L19.2422 11.0871L17.235 12.6927C17.1056 12.7964 17.0264 12.9507 17.0174 13.1165C17.0082 13.2822 17.0697 13.444 17.1871 13.5607L17.7026 14.0756C17.8125 14.1855 17.9607 14.2465 18.1151 14.2465C18.1259 14.2465 18.1367 14.246 18.1476 14.2454C18.3133 14.2362 18.4671 14.1571 18.5708 14.0278L20.1763 12.021L21.7818 14.0278Z" fill="#303C42"/>
<path fill-rule="evenodd" clip-rule="evenodd" d="M27.993 0.672605C28.0238 0.472076 27.948 0.269848 27.7931 0.138869C27.6382 0.00729994 27.4245 -0.0331698 27.2331 0.0300398C27.1984 0.0414097 23.6933 1.16706 15.75 1.16706C8.87362 1.16706 0.746909 0.0181199 0.666019 0.00613995C0.45979 -0.0234998 0.2644 0.0556896 0.13512 0.210668C0.00523999 0.366687 -0.03408 0.578046 0.03083 0.769994C0.0422 0.803624 1.16674 4.19129 1.16674 8.7501C1.16674 9.02014 1.35246 9.2548 1.61506 9.31747C2.75496 9.5886 4.66671 10.406 4.66671 12.8333C4.66671 15.0436 3.72336 16.156 1.69879 16.3355C1.39746 16.3623 1.16674 16.6141 1.16674 16.9165C1.16674 23.1638 0.03368 27.2162 0.0223 27.2561C-0.03293 27.4498 0.01601 27.6589 0.15163 27.8081C0.2872 27.9568 0.49058 28.0268 0.68767 27.9898C0.751489 27.9785 7.09235 26.8329 10.5 26.8329C15.6605 26.8329 27.2422 27.9847 27.3584 27.9967C27.3778 27.9984 27.3972 27.9995 27.4166 27.9995C27.5772 27.9995 27.7316 27.9334 27.8421 27.8149C27.9663 27.6822 28.0221 27.4994 27.9919 27.3205C27.9805 27.251 26.8332 20.2888 26.8332 13.4166C26.8332 8.27276 27.9816 0.747784 27.993 0.672595L27.993 0.672605Z" fill="url(#paint0_linear_0_647)"/>
<defs>
<linearGradient id="paint0_linear_0_647" x1="-2.315" y1="35.84" x2="-0.755002" y2="35.11" gradientUnits="userSpaceOnUse">
<stop stop-color="white" stop-opacity="0.2"/>
<stop offset="1" stop-color="white" stop-opacity="0.01"/>
</linearGradient>
</defs>
</svg>
